<svg xmlns="http://www.w3.org/2000/svg" viewBox="0 0 640 512" fill="currentColor">
  <path d="M623.1 136.9l-282.7 101.2c-13.4 4.8-28.2 4.8-41.6 0L16.9 136.9C6.2 133.2 0 123.2 0 112c0-13.3 10.7-24 24-24h592c13.3 0 24 10.7 24 24c0 11.2-6.2 21.2-16.9 24.9zM550.2 288H89.8l-25.4-90.7 250.7 89.8c13.4 4.8 28.2 4.8 41.6 0l250.7-89.8L550.2 288zM320 448c-35.3 0-64-28.7-64-64V288H128v96c0 35.3-28.7 64-64 64H32c-17.7 0-32 14.3-32 32s14.3 32 32 32h32c70.6 0 128-57.4 128-128V288h64v96c0 35.3 28.7 64 64 64s64-28.7 64-64V288h64v96c0 70.6 57.4 128 128 128h32c17.7 0 32-14.3 32-32s-14.3-32-32-32h-32c-35.3 0-64-28.7-64-64V288h-64v96c0 35.3-28.7 64-64 64z"/>
</svg>


